<?xml version="1.0" encoding="utf-8"?>
<!-- Generator: Adobe Illustrator 16.0.0, SVG Export Plug-In . SVG Version: 6.00 Build 0)  -->
<!DOCTYPE svg PUBLIC "-//W3C//DTD SVG 1.1//EN" "http://www.w3.org/Graphics/SVG/1.1/DTD/svg11.dtd">
<svg version="1.1" id="Layer_1" xmlns="http://www.w3.org/2000/svg" xmlns:xlink="http://www.w3.org/1999/xlink" x="0px" y="0px"
	 width="26.249px" height="30.448px" viewBox="4.375 5.115 26.249 30.448" enable-background="new 4.375 5.115 26.249 30.448"
	 xml:space="preserve">
<path fill="#4166F5" d="M17.499,35.339c2.069,0,3.75-1.68,3.75-3.75h-7.5C13.749,33.659,15.429,35.339,17.499,35.339 M19.364,7.402
	c0.105-1.032-0.649-1.95-1.678-2.054c-1.031-0.103-1.95,0.65-2.053,1.679c-0.012,0.124-0.012,0.25,0,0.375
	c-4.371,0.887-7.509,4.73-7.509,9.188c0,2.059-0.938,11.249-3.75,13.124h26.249c-2.813-1.875-3.75-11.064-3.75-13.124
	C26.873,12.054,23.646,8.266,19.364,7.402"/>
</svg>
