<?xml version="1.0" encoding="UTF-8" standalone="no"?>
<svg
   xmlns:dc="http://purl.org/dc/elements/1.1/"
   xmlns:cc="http://creativecommons.org/ns#"
   xmlns:rdf="http://www.w3.org/1999/02/22-rdf-syntax-ns#"
   xmlns:svg="http://www.w3.org/2000/svg"
   xmlns="http://www.w3.org/2000/svg"
   viewBox="0 0 1202.5227 341.98267"
   height="341.98267"
   width="1202.5227"
   xml:space="preserve"
   id="svg2"
   version="1.1"><metadata
     id="metadata8"><rdf:RDF><cc:Work
         rdf:about=""><dc:format>image/svg+xml</dc:format><dc:type
           rdf:resource="http://purl.org/dc/dcmitype/StillImage" /></cc:Work></rdf:RDF></metadata><defs
     id="defs6"><clipPath
       id="clipPath18"
       clipPathUnits="userSpaceOnUse"><path
         id="path16"
         d="M 0,256.487 H 901.892 V 0 H 0 Z" /></clipPath></defs><g
     transform="matrix(1.3333333,0,0,-1.3333333,0,341.98267)"
     id="g10"><g
       id="g12"><g
         clip-path="url(#clipPath18)"
         id="g14"><g
           transform="translate(75.1895,188.0073)"
           id="g20"><path
             id="path22"
             style="fill:#4166f5;fill-opacity:1;fill-rule:nonzero;stroke:none"
             d="M 0,0 C -0.054,4.283 1.755,5.951 6.034,5.792 12.192,5.563 18.364,5.733 26.044,5.733 32.602,4.876 40.746,6.885 48.835,4.561 59.124,1.605 62.891,-6.896 62.917,-13.236 c 0.039,-8.903 -5.762,-16.331 -14.586,-19.269 -3.496,-1.164 -7.009,-1.847 -10.74,-1.801 -10.33,0.124 -20.665,0.16 -30.995,-0.007 -4.584,-0.074 -6.739,1.48 -6.624,6.359 C 0.19,-18.641 0.117,-9.317 0,0 m -45.723,-3.083 c 0.008,19.636 8.73,32.9 26.791,40.104 4.137,1.65 8.777,1.706 13.271,1.708 37.654,0.014 75.312,-0.304 112.96,0.159 15.741,0.193 31.147,-14.201 34.319,-27.583 3.92,-16.535 1.496,-33.142 1.986,-49.703 0.105,-3.594 -2.545,-6.786 -5.539,-9.092 -5.813,-4.48 -12.197,-7.02 -19.777,-6.854 -13.002,0.285 -25.377,-2.405 -36.731,-9.108 -4.248,-2.508 -7.303,-6.279 -10.808,-9.578 -1.516,-1.428 -2.624,-1.866 -3.524,0.599 -2.488,6.796 -6.578,12.662 -11.133,18.178 -2.164,2.618 -1.517,3.649 1.366,4.835 11.08,4.558 18.683,12.634 22.492,23.94 6.636,19.697 -5.686,43.74 -26.436,48.287 -3.626,0.795 -7.23,0.94 -10.892,0.936 C 25.961,23.725 9.3,23.766 -7.36,23.72 c -8.219,-0.023 -11.587,-3.363 -11.601,-11.477 -0.035,-19.993 -0.012,-39.987 -0.012,-59.98 0,-19.993 0.08,-39.987 -0.069,-59.979 -0.028,-3.848 1.177,-6.68 4.033,-9.149 5.051,-4.369 12.547,-2.379 14.275,4.053 0.594,2.215 0.722,4.607 0.732,6.918 0.061,15.496 0.251,30.995 -0.089,46.482 -0.114,5.225 1.666,6.803 6.576,6.332 6.103,-0.585 12.359,0.935 18.369,-0.942 14.456,-4.517 22.048,-15.589 26.025,-29.177 3.836,-13.105 3.096,-26.527 0.641,-39.963 -0.895,-4.894 -2.278,-9.642 -3.167,-14.511 -0.708,-3.868 -3.009,-5.809 -6.905,-5.805 -18.158,0.023 -36.329,-0.346 -54.469,0.238 -14.581,0.469 -28.995,14.145 -31.167,27.885 -1.048,6.625 -1.556,13.154 -1.551,19.803 0.023,30.823 0.003,61.646 0.016,92.469 m 186.38,-115.223 c -5.516,-14.594 -16.826,-23.838 -33.608,-24.893 -5.808,-0.365 -11.658,-0.058 -17.488,-0.058 -5.998,0 -11.998,0.125 -17.99,-0.047 -3.438,-0.1 -5.115,1.066 -4.418,4.623 1.053,5.365 2.088,10.738 3.316,16.066 0.694,3.004 3.102,3.461 5.834,3.442 9.662,-0.063 19.324,-0.1 28.987,0.027 7.072,0.094 9.96,3.266 9.732,10.24 -0.184,5.592 -3.35,8.406 -10.035,8.504 -8.66,0.127 -17.326,0.17 -25.985,-0.015 -4.109,-0.088 -4.316,0.9 -2.502,4.396 7.643,14.714 19.006,22.998 36.129,22.654 9.782,-0.196 19.67,-0.351 28.643,4.771 1.568,0.896 2.568,0.161 2.502,-1.676 -0.576,-16.06 2.726,-32.577 -3.117,-48.034 M -9.142,-162.21 c 36.645,-0.122 73.291,-0.059 109.937,-0.014 19.573,0.023 36.643,6.113 49.262,21.697 6.904,8.527 11.766,18.406 11.852,29.531 0.299,38.81 0.078,77.623 0.164,116.434 0.011,4.938 -1.49,9.539 -2.871,14.049 -3.696,12.077 -11.934,20.958 -21.889,28.304 -7.912,5.84 -16.48,9.308 -26.744,9.078 -20.479,-0.458 -40.975,-0.136 -61.463,-0.136 -20.987,0 -41.976,-0.041 -62.963,0.034 -4.363,0.016 -8.48,-0.557 -12.687,-1.931 -20.238,-6.607 -37.408,-29.827 -37.417,-51.122 -0.018,-36.312 -0.001,-72.625 -0.01,-108.938 -0.002,-4.986 0.544,-9.807 1.659,-14.762 5.32,-23.646 27.559,-42.139 53.17,-42.224" /></g><g
           transform="translate(552.5293,154.457)"
           id="g24"><path
             id="path26"
             style="fill:#4166f5;fill-opacity:1;fill-rule:nonzero;stroke:none"
             d="m 0,0 h -34.823 c -4.895,0 -5.242,3.016 -4.503,6.831 1.456,7.528 1.583,9.382 3.13,17.759 2.597,14.056 7.14,22.581 17.278,29.9 14.454,10.432 29.847,10.31 45.439,2.896 5.151,-2.451 8.576,-1.751 11.765,3.069 2.535,3.836 5.863,7.151 8.829,10.704 3.72,4.454 3.271,6.615 -1.818,9.506 C 33.555,87.337 20.914,89.904 7.476,89.524 -21.852,88.7 -42.861,74.477 -57.336,49.658 -64.418,37.517 -66.302,25.01 -67.72,11.357 -68.844,0.544 -79.037,0 -79.037,0 h -13.321 c -4.231,0 -0.837,-8.765 0,-11.349 4.066,-12.556 5.042,-10.656 13.321,-10.656 4.568,0 8.058,-0.566 7.41,-4.505 -2.503,-15.199 -4.495,-30.494 -8.857,-45.33 -6.594,-22.421 -17.572,-40.467 -43.53,-43.595 -1.948,-0.233 -3.779,-0.991 -4.104,-3.398 -0.368,-2.709 0.256,-4.949 2.703,-6.53 6.406,-4.144 13.535,-3.487 20.258,-2.073 19.771,4.164 32.797,17.073 42.07,34.296 10.975,20.381 15.493,42.895 18.553,65.525 0.546,4.027 2.051,5.615 6.245,5.615 h 24.544 c 10.115,0 13.667,1.056 18.064,11.087 C 7.438,-3.798 7.763,0 0,0" /></g><g
           transform="translate(317.5757,125.457)"
           id="g28"><path
             id="path30"
             style="fill:#4166f5;fill-opacity:1;fill-rule:nonzero;stroke:none"
             d="M 0,0 H -29.018 V 18.166 34 H 0 C 7.913,34 13.632,25.194 13.632,18.004 13.632,10.443 8.583,0 0,0 m 19.06,-21.932 c -3.451,4.786 -2.21,5.945 2.172,8.188 14.648,7.5 21.1,21.426 19.096,40.044 C 38.965,38.949 27.244,50.535 13,54.703 c -12.269,3.589 -58.252,2.134 -63.708,2.134 -4.655,0 -6.695,-2.031 -6.688,-6.672 0.054,-35.292 0.111,-70.258 0,-105.552 -0.015,-4.674 2.178,-5.613 6.364,-5.613 h 16.288 c 3.612,0 5.394,0.738 5.353,4.525 -0.096,8.893 -0.084,17.972 -0.024,26.863 0.039,5.678 0,9.612 0,9.612 h 10.371 c 7.08,0 9.388,-1.478 12.728,-5.893 C -1.051,-32.851 22.412,-61 22.412,-61 h 21.003 c 2.863,0 2.231,2.85 -2.052,8.395 -7.645,9.894 -14.746,20.195 -22.303,30.673" /></g><g
           transform="translate(766.4727,152.8765)"
           id="g32"><path
             id="path34"
             style="fill:#4166f5;fill-opacity:1;fill-rule:nonzero;stroke:none"
             d="m 0,0 c 0,0 -12.809,1.707 -12.809,-9.479 -0.061,-25.782 -0.054,-48.022 -0.034,-73.806 0.002,-3.72 1.673,-5.134 5.691,-5.134 H 3.891 c 5.18,0 7.92,1.003 7.762,7.009 -0.366,14.143 -0.193,28.08 -0.082,42.232 0.075,9.66 5.232,17.468 12.465,19.522 10.961,3.114 19.891,-3.816 20.033,-15.841 0.19,-15.699 0.205,-30.99 -0.029,-46.688 -0.075,-5.109 1.75,-6.234 6.788,-6.234 h 10.464 c 7.578,0 8.395,0.421 8.412,7.939 0.035,14.732 -0.145,29.247 0.067,43.978 0.199,13.815 13.258,21.766 24.612,15.196 6.031,-3.49 6.506,-9.914 6.636,-15.789 0.34,-15.308 0.22,-30.212 0.066,-45.524 -0.043,-4.41 1.384,-5.8 6.026,-5.8 h 11.626 c 5.08,0 6.894,1.779 6.864,6.627 -0.11,17.447 0.277,34.681 -0.168,52.117 -0.25,9.849 -3.155,18.896 -11.445,25.427 C 103.339,4.143 78.533,4.616 68.79,-8.095 66.685,-10.845 64.889,-11.646 62.205,-8.101 59.066,-3.954 54.867,-0.806 49.47,0.417 35.846,3.501 23.426,1.357 11.192,-9.472 11.192,1.714 0,0 0,0" /></g><g
           transform="translate(392.2568,121.5273)"
           id="g36"><path
             id="path38"
             style="fill:#4166f5;fill-opacity:1;fill-rule:nonzero;stroke:none"
             d="m 0,0 c 1.757,7.793 9.792,14.501 17.782,14.727 10.364,0.294 17.142,-4.389 19.829,-13.076 1.27,-4.105 -0.219,-5.079 -3.872,-5.024 -5.07,0.079 -10.143,0.02 -15.216,0.022 C 13.265,-3.348 8.004,-3.273 2.745,-3.382 0.169,-3.435 -0.553,-2.457 0,0 m 54.953,-35.573 c -2.457,3.718 -5.406,4.861 -9.533,2.428 -4.704,-2.769 -9.757,-4.73 -15.124,-5.936 -12.254,-2.76 -26.763,4.227 -30.417,14.543 -1.388,3.918 -1.139,5.488 3.287,5.39 8.85,-0.197 18.135,-0.059 26.135,-0.059 v 0.021 c 9,0 18.129,-0.002 26.982,0.002 2.567,0.002 5.446,0.146 5.463,3.59 0.033,5.623 0.555,13.244 -0.404,16.865 -6.631,25.046 -19.519,31.795 -47.299,31.795 -28.344,0 -46.002,-32.137 -38.365,-58.587 10.232,-35.435 54.558,-40.08 79.136,-22.072 3.738,2.737 3.569,6.829 0.139,12.02" /></g><g
           transform="translate(708.2725,86.4004)"
           id="g40"><path
             id="path42"
             style="fill:#4166f5;fill-opacity:1;fill-rule:nonzero;stroke:none"
             d="m 0,0 c -5.832,-3.253 -11.971,-6.236 -19.075,-3.099 -3.706,1.639 -5.893,4.492 -5.739,8.18 0.136,3.297 1.973,6.187 5.311,8.029 7.968,4.405 16.866,4.527 25.476,5.837 3.566,0.541 2.423,-2.908 2.774,-4.705 C 8.701,7.572 5.254,2.929 0,0 m 32.442,33.652 c -0.449,10.967 -3.999,20.769 -13.372,27.28 -11.01,7.65 -23.709,8.189 -36.351,6.548 -7.383,-0.955 -14.628,-3.528 -20.708,-8.291 -4.02,-3.146 -3.993,-7.359 -0.381,-13.599 2.469,-4.261 5.665,-4.27 9.53,-2.176 4.668,2.53 9.775,4.069 14.918,4.899 6.363,1.024 12.861,0.749 18.166,-3.734 C 6.708,42.498 9.096,39.358 8.052,36.367 7.131,33.729 3.319,34.214 0.526,33.909 -11.58,32.585 -23.813,31.607 -34.833,25.712 -43.654,20.987 -48.934,13.306 -48.629,3.447 c 0.383,-12.36 5.842,-19.785 17.193,-23.721 12.838,-4.455 24.777,-2.426 35.468,6.024 2.45,1.938 4.147,3.811 5.189,-0.754 0.859,-3.766 3.421,-6.939 7.521,-6.939 h 10.169 c 3.806,0 5.735,3.822 5.644,7.935 -0.179,8.1 -0.054,16.007 -0.051,24.112 0.002,7.917 0.264,15.645 -0.062,23.548" /></g><g
           transform="translate(603.9092,87.0723)"
           id="g44"><path
             id="path46"
             style="fill:#4166f5;fill-opacity:1;fill-rule:nonzero;stroke:none"
             d="M 0,0 C -12.428,0 -22.505,10.076 -22.505,22.506 -22.505,34.935 -12.428,45.01 0,45.01 12.432,45.01 22.507,34.935 22.507,22.506 22.507,10.076 12.432,0 0,0 m 0.582,67.893 c -25.066,0 -45.388,-20.319 -45.388,-45.387 0,-25.068 20.322,-45.387 45.388,-45.387 25.069,0 45.39,20.319 45.39,45.387 0,25.068 -20.321,45.387 -45.39,45.387" /></g></g></g></g></svg>