<?xml version="1.0" encoding="utf-8"?>
<!-- Generator: Adobe Illustrator 16.0.0, SVG Export Plug-In . SVG Version: 6.00 Build 0)  -->
<!DOCTYPE svg PUBLIC "-//W3C//DTD SVG 1.1//EN" "http://www.w3.org/Graphics/SVG/1.1/DTD/svg11.dtd">
<svg version="1.1" id="Layer_1" xmlns="http://www.w3.org/2000/svg" xmlns:xlink="http://www.w3.org/1999/xlink" x="0px" y="0px"
	 width="31.417px" height="31.167px" viewBox="-7.833 -7.583 31.417 31.167" enable-background="new -7.833 -7.583 31.417 31.167"
	 xml:space="preserve">
<g>
	<path fill="#BDBDBD" d="M12.447,9.873c-1.213,0.99-2.76,1.585-4.447,1.585c-1.688,0-3.235-0.595-4.448-1.585
		c-2.027,1.37-3.954,3.67-3.954,7.492c0,0.305,0.016,0.608,0.045,0.915c2.28,1.857,5.188,2.974,8.359,2.974
		c3.167,0,6.074-1.116,8.353-2.973c0.029-0.308,0.046-0.614,0.046-0.916C16.401,13.543,14.475,11.243,12.447,9.873z"/>
	<path d="M3.552,9.873c-0.259-0.212-0.499-0.445-0.725-0.69C0.65,10.705-1.39,13.219-1.4,17.336
		c0.331,0.333,0.679,0.647,1.043,0.944c-0.029-0.307-0.045-0.61-0.045-0.915C-0.402,13.543,1.525,11.243,3.552,9.873z"/>
	<path d="M13.173,9.183c-0.227,0.245-0.466,0.479-0.726,0.69c2.027,1.37,3.954,3.67,3.954,7.492c0,0.302-0.017,0.608-0.046,0.916
		c0.364-0.297,0.714-0.61,1.044-0.943C17.39,13.219,15.35,10.705,13.173,9.183z"/>
	<circle fill="#BDBDBD" cx="8" cy="4.416" r="5.625"/>
	<path d="M8.002-7.103c-8.348,0-15.115,6.765-15.115,15.112c0,8.348,6.767,15.114,15.115,15.114c8.341,0,15.111-6.766,15.111-15.114
		C23.113-0.337,16.344-7.103,8.002-7.103z M16.355,18.281c-2.279,1.856-5.186,2.973-8.353,2.973c-3.171,0-6.079-1.116-8.359-2.974
		c-0.364-0.297-0.712-0.611-1.043-0.944c0.01-4.117,2.05-6.631,4.227-8.153c0.227,0.245,0.466,0.479,0.725,0.69
		c1.213,0.99,2.761,1.585,4.448,1.585c1.687,0,3.234-0.595,4.447-1.585c0.26-0.211,0.499-0.445,0.726-0.69
		c2.177,1.522,4.217,4.036,4.227,8.155C17.069,17.671,16.72,17.984,16.355,18.281z M8,10.041c-3.106,0-5.625-2.518-5.625-5.625
		S4.894-1.208,8-1.208c3.105,0,5.625,2.519,5.625,5.625S11.105,10.041,8,10.041z"/>
</g>
</svg>
